<?xml version="1.0" encoding="iso-8859-1"?>
<!-- Generator: Adobe Illustrator 19.0.0, SVG Export Plug-In . SVG Version: 6.00 Build 0)  -->
<svg version="1.1" id="Capa_1" xmlns="http://www.w3.org/2000/svg" xmlns:xlink="http://www.w3.org/1999/xlink" x="0px" y="0px"
	 viewBox="0 0 512 512" style="enable-background:new 0 0 512 512;" xml:space="preserve">
<g>
	<g>
		<path d="M423.538,78.729l-93.867-76.8C328.152,0.683,326.241,0,324.27,0H59.736c-4.71,0-8.533,3.823-8.533,8.533v460.8
			c0,4.71,3.823,8.533,8.533,8.533h358.4c4.71,0,8.533-3.823,8.533-8.533v-384C426.67,82.782,425.518,80.358,423.538,78.729z
			 M409.603,460.8H68.27V17.067h252.954l88.38,72.311V460.8z"/>
	</g>
</g>
<g>
	<g>
		<path d="M415.312,78.985l-85.333-76.8c-2.5-2.244-6.101-2.816-9.182-1.451c-3.081,1.374-5.06,4.429-5.06,7.799v76.8
			c0,4.71,3.823,8.533,8.533,8.533h85.333c3.533,0,6.699-2.176,7.97-5.478C418.836,85.086,417.94,81.348,415.312,78.985z
			 M332.803,76.8V27.691L387.365,76.8H332.803z"/>
	</g>
</g>
<g>
	<g>
		<path d="M452.27,34.133h-86.281c-3.61,0-6.827,2.27-8.047,5.666c-1.212,3.396-0.154,7.185,2.637,9.472l49.024,40.107V460.8H93.87
			c-4.71,0-8.533,3.823-8.533,8.533v34.133c0,4.71,3.823,8.533,8.533,8.533h358.4c4.71,0,8.533-3.823,8.533-8.533v-460.8
			C460.803,37.956,456.98,34.133,452.27,34.133z M443.736,494.933H102.403v-17.067h315.733c4.71,0,8.533-3.823,8.533-8.533v-384
			c0-2.551-1.152-4.975-3.132-6.596L389.891,51.2h53.845V494.933z"/>
	</g>
</g>
<g>
	<g>
		<path d="M136.536,162.133c-18.825,0-34.133,15.309-34.133,34.133s15.309,34.133,34.133,34.133s34.133-15.309,34.133-34.133
			S155.361,162.133,136.536,162.133z M136.536,213.333c-9.412,0-17.067-7.654-17.067-17.067c0-9.412,7.654-17.067,17.067-17.067
			c9.412,0,17.067,7.654,17.067,17.067C153.603,205.679,145.949,213.333,136.536,213.333z"/>
	</g>
</g>
<g>
	<g>
		<path d="M230.403,273.067c-18.825,0-34.133,15.309-34.133,34.133s15.309,34.133,34.133,34.133
			c18.825,0,34.133-15.309,34.133-34.133S249.227,273.067,230.403,273.067z M230.403,324.267c-9.412,0-17.067-7.654-17.067-17.067
			s7.654-17.067,17.067-17.067c9.412,0,17.067,7.654,17.067,17.067S239.815,324.267,230.403,324.267z"/>
	</g>
</g>
<g>
	<g>
		<path d="M324.27,187.733c-18.825,0-34.133,15.309-34.133,34.133S305.445,256,324.27,256s34.133-15.309,34.133-34.133
			S343.094,187.733,324.27,187.733z M324.27,238.933c-9.412,0-17.067-7.654-17.067-17.067c0-9.412,7.654-17.067,17.067-17.067
			s17.067,7.654,17.067,17.067C341.336,231.279,333.682,238.933,324.27,238.933z"/>
	</g>
</g>
<g>
	<g>
		<path d="M218.311,285.065l-55.509-77.03c-2.756-3.823-8.09-4.693-11.913-1.937c-3.823,2.756-4.693,8.09-1.937,11.913l55.509,77.03
			c1.673,2.321,4.275,3.55,6.929,3.55c1.732,0,3.473-0.521,4.984-1.613C220.197,294.221,221.067,288.888,218.311,285.065z"/>
	</g>
</g>
<g>
	<g>
		<path d="M312.63,234.385c-3.089-3.558-8.482-3.942-12.041-0.862l-57.225,49.587c-3.558,3.089-3.951,8.482-0.862,12.041
			c1.681,1.946,4.062,2.944,6.451,2.944c1.98,0,3.977-0.683,5.589-2.082l57.225-49.587
			C315.327,243.337,315.719,237.943,312.63,234.385z"/>
	</g>
</g>
<g>
	<g>
		<path d="M390.949,293.709l-41.805-58.53c-2.739-3.84-8.064-4.727-11.904-1.988c-3.831,2.739-4.719,8.073-1.98,11.904l41.805,58.53
			c1.664,2.33,4.284,3.575,6.946,3.575c1.715,0,3.447-0.521,4.958-1.587C392.801,302.874,393.688,297.54,390.949,293.709z"/>
	</g>
</g>
<g>
	<g>
		<path d="M418.136,290.133h-34.133c-4.71,0-8.533,3.823-8.533,8.533s3.823,8.533,8.533,8.533h34.133
			c4.71,0,8.533-3.823,8.533-8.533S422.847,290.133,418.136,290.133z"/>
	</g>
</g>
<g>
	<g>
		<path d="M121.953,205.355c-3.251-3.422-8.653-3.55-12.066-0.307l-56.038,53.299c-3.413,3.251-3.55,8.653-0.299,12.066
			c1.681,1.766,3.934,2.654,6.187,2.654c2.116,0,4.232-0.776,5.879-2.347l56.038-53.299
			C125.067,214.17,125.204,208.768,121.953,205.355z"/>
	</g>
</g>
<g>
	<g>
		<path d="M162.136,119.467h-59.733c-4.71,0-8.533,3.823-8.533,8.533s3.823,8.533,8.533,8.533h59.733
			c4.71,0,8.533-3.823,8.533-8.533S166.847,119.467,162.136,119.467z"/>
	</g>
</g>
<g>
	<g>
		<path d="M290.136,119.467H196.27c-4.71,0-8.533,3.823-8.533,8.533s3.823,8.533,8.533,8.533h93.867c4.71,0,8.533-3.823,8.533-8.533
			S294.847,119.467,290.136,119.467z"/>
	</g>
</g>
<g>
	<g>
		<path d="M264.536,76.8h-102.4c-4.71,0-8.533,3.823-8.533,8.533c0,4.71,3.823,8.533,8.533,8.533h102.4
			c4.71,0,8.533-3.823,8.533-8.533C273.07,80.623,269.247,76.8,264.536,76.8z"/>
	</g>
</g>
<g>
	<g>
		<path d="M128.003,76.8h-25.6c-4.71,0-8.533,3.823-8.533,8.533c0,4.71,3.823,8.533,8.533,8.533h25.6
			c4.71,0,8.533-3.823,8.533-8.533C136.536,80.623,132.713,76.8,128.003,76.8z"/>
	</g>
</g>
<g>
	<g>
		<path d="M384.003,358.4H93.87c-4.71,0-8.533,3.823-8.533,8.533V435.2c0,4.71,3.823,8.533,8.533,8.533h290.133
			c4.71,0,8.533-3.823,8.533-8.533v-68.267C392.536,362.223,388.713,358.4,384.003,358.4z M375.47,426.667H102.403v-51.2H375.47
			V426.667z"/>
	</g>
</g>
<g>
	<g>
		<path d="M315.736,392.533H93.87c-4.71,0-8.533,3.823-8.533,8.533s3.823,8.533,8.533,8.533h221.867c4.71,0,8.533-3.823,8.533-8.533
			S320.447,392.533,315.736,392.533z"/>
	</g>
</g>
<g>
	<g>
		<path d="M384.003,392.533H349.87c-4.71,0-8.533,3.823-8.533,8.533s3.823,8.533,8.533,8.533h34.133c4.71,0,8.533-3.823,8.533-8.533
			S388.713,392.533,384.003,392.533z"/>
	</g>
</g>
<g>
</g>
<g>
</g>
<g>
</g>
<g>
</g>
<g>
</g>
<g>
</g>
<g>
</g>
<g>
</g>
<g>
</g>
<g>
</g>
<g>
</g>
<g>
</g>
<g>
</g>
<g>
</g>
<g>
</g>
</svg>
