<?xml version="1.0"?>
<svg xmlns="http://www.w3.org/2000/svg" xmlns:xlink="http://www.w3.org/1999/xlink" version="1.1" viewBox="0 0 192 192" width="16px" height="16px"><g transform="translate(28.8,28.8) scale(0.7,0.7)"><g fill="none" fill-rule="nonzero" stroke="none" stroke-width="1" stroke-linecap="butt" stroke-linejoin="miter" stroke-miterlimit="10" stroke-dasharray="" stroke-dashoffset="0" font-family="none" font-weight="none" font-size="none" text-anchor="none" style="mix-blend-mode: normal"><path d="M0,192v-192h192v192z" fill="none"/><g id="original-icon" fill="#34495e"><g id="surface1"><path d="M126,12c-29.76563,0 -54,24.23437 -54,54c0,12.70313 4.59376,24.28126 12,33.51563l-59.71874,59.71874l8.4375,8.53126l59.76562,-59.76563c9.23438,7.40626 20.8125,12 33.51563,12c29.76563,0 54,-24.23437 54,-54c0,-29.76563 -24.23437,-54 -54,-54zM126,24c23.25,0 42,18.75 42,42c0,23.25 -18.75,42 -42,42c-23.25,0 -42,-18.75 -42,-42c0,-23.25 18.75,-42 42,-42z"/></g></g><path d="" fill="none"/><path d="" fill="none"/></g></g></svg>
